<mxfile host="app.diagrams.net" agent="Mozilla/5.0 (Windows NT 10.0; Win64; x64) AppleWebKit/537.36 (KHTML, like Gecko) Chrome/136.0.0.0 Safari/537.36" version="27.0.9">
  <diagram name="Page-1" id="2YBvvXClWsGukQMizWep">
    <mxGraphModel dx="1603" dy="872" grid="1" gridSize="10" guides="1" tooltips="1" connect="1" arrows="1" fold="1" page="1" pageScale="1" pageWidth="850" pageHeight="1100" math="0" shadow="0">
      <root>
        <mxCell id="0" />
        <mxCell id="1" parent="0" />
        <mxCell id="uf-ytKDiLAE-xItJyAtV-1" value="Actor" style="shape=umlActor;verticalLabelPosition=bottom;verticalAlign=top;html=1;outlineConnect=0;" parent="1" vertex="1">
          <mxGeometry x="40" y="40" width="30" height="60" as="geometry" />
        </mxCell>
        <mxCell id="uf-ytKDiLAE-xItJyAtV-2" value="HomeScreen" style="rounded=0;whiteSpace=wrap;html=1;" parent="1" vertex="1">
          <mxGeometry x="130" y="40" width="80" height="20" as="geometry" />
        </mxCell>
        <mxCell id="uf-ytKDiLAE-xItJyAtV-3" value="RentAspotClass" style="rounded=0;whiteSpace=wrap;html=1;" parent="1" vertex="1">
          <mxGeometry x="410" y="40" width="110" height="20" as="geometry" />
        </mxCell>
        <mxCell id="uf-ytKDiLAE-xItJyAtV-4" value="ParkingScreen" style="rounded=0;whiteSpace=wrap;html=1;" parent="1" vertex="1">
          <mxGeometry x="540" y="40" width="80" height="20" as="geometry" />
        </mxCell>
        <mxCell id="uf-ytKDiLAE-xItJyAtV-5" value="DateScreen" style="rounded=0;whiteSpace=wrap;html=1;" parent="1" vertex="1">
          <mxGeometry x="720" y="40" width="70" height="20" as="geometry" />
        </mxCell>
        <mxCell id="uf-ytKDiLAE-xItJyAtV-6" value="PaymentScreen" style="rounded=0;whiteSpace=wrap;html=1;" parent="1" vertex="1">
          <mxGeometry x="770" y="550" width="90" height="20" as="geometry" />
        </mxCell>
        <mxCell id="uf-ytKDiLAE-xItJyAtV-7" value="DB" style="rounded=0;whiteSpace=wrap;html=1;" parent="1" vertex="1">
          <mxGeometry x="880" y="40" width="70" height="20" as="geometry" />
        </mxCell>
        <mxCell id="uf-ytKDiLAE-xItJyAtV-8" value="" style="endArrow=none;dashed=1;html=1;rounded=0;fontSize=12;startSize=8;endSize=8;curved=1;entryX=0.5;entryY=1;entryDx=0;entryDy=0;" parent="1" target="uf-ytKDiLAE-xItJyAtV-7" edge="1">
          <mxGeometry width="50" height="50" relative="1" as="geometry">
            <mxPoint x="915" y="420" as="sourcePoint" />
            <mxPoint x="770" y="240" as="targetPoint" />
          </mxGeometry>
        </mxCell>
        <mxCell id="uf-ytKDiLAE-xItJyAtV-9" value="" style="endArrow=none;dashed=1;html=1;rounded=0;fontSize=12;startSize=8;endSize=8;curved=1;" parent="1" source="uf-ytKDiLAE-xItJyAtV-46" edge="1">
          <mxGeometry width="50" height="50" relative="1" as="geometry">
            <mxPoint x="755" y="830" as="sourcePoint" />
            <mxPoint x="754.5" y="60" as="targetPoint" />
          </mxGeometry>
        </mxCell>
        <mxCell id="uf-ytKDiLAE-xItJyAtV-10" value="" style="endArrow=none;dashed=1;html=1;rounded=0;fontSize=12;startSize=8;endSize=8;curved=1;entryX=0.5;entryY=1;entryDx=0;entryDy=0;" parent="1" target="uf-ytKDiLAE-xItJyAtV-4" edge="1">
          <mxGeometry width="50" height="50" relative="1" as="geometry">
            <mxPoint x="580" y="190" as="sourcePoint" />
            <mxPoint x="585" y="60" as="targetPoint" />
          </mxGeometry>
        </mxCell>
        <mxCell id="uf-ytKDiLAE-xItJyAtV-11" value="" style="endArrow=none;dashed=1;html=1;rounded=0;fontSize=12;startSize=8;endSize=8;curved=1;" parent="1" source="uf-ytKDiLAE-xItJyAtV-23" edge="1">
          <mxGeometry width="50" height="50" relative="1" as="geometry">
            <mxPoint x="454.5" y="590" as="sourcePoint" />
            <mxPoint x="454.5" y="60" as="targetPoint" />
          </mxGeometry>
        </mxCell>
        <mxCell id="uf-ytKDiLAE-xItJyAtV-12" value="" style="endArrow=none;dashed=1;html=1;rounded=0;fontSize=12;startSize=8;endSize=8;curved=1;" parent="1" source="uf-ytKDiLAE-xItJyAtV-16" edge="1">
          <mxGeometry width="50" height="50" relative="1" as="geometry">
            <mxPoint x="169.5" y="590" as="sourcePoint" />
            <mxPoint x="169.5" y="60" as="targetPoint" />
          </mxGeometry>
        </mxCell>
        <mxCell id="uf-ytKDiLAE-xItJyAtV-13" value="" style="endArrow=none;dashed=1;html=1;rounded=0;fontSize=12;startSize=8;endSize=8;curved=1;" parent="1" edge="1">
          <mxGeometry width="50" height="50" relative="1" as="geometry">
            <mxPoint x="50" y="880" as="sourcePoint" />
            <mxPoint x="54.5" y="120" as="targetPoint" />
          </mxGeometry>
        </mxCell>
        <mxCell id="uf-ytKDiLAE-xItJyAtV-14" value="Selects&amp;nbsp;&lt;div&gt;Rent a Spot&lt;/div&gt;" style="html=1;verticalAlign=bottom;endArrow=block;curved=0;rounded=0;fontSize=12;startSize=8;endSize=8;" parent="1" edge="1">
          <mxGeometry width="80" relative="1" as="geometry">
            <mxPoint x="60" y="150" as="sourcePoint" />
            <mxPoint x="165" y="150" as="targetPoint" />
          </mxGeometry>
        </mxCell>
        <mxCell id="uf-ytKDiLAE-xItJyAtV-15" value="" style="endArrow=none;dashed=1;html=1;rounded=0;fontSize=12;startSize=8;endSize=8;curved=1;" parent="1" target="uf-ytKDiLAE-xItJyAtV-16" edge="1">
          <mxGeometry width="50" height="50" relative="1" as="geometry">
            <mxPoint x="170" y="880" as="sourcePoint" />
            <mxPoint x="169.5" y="60" as="targetPoint" />
          </mxGeometry>
        </mxCell>
        <mxCell id="uf-ytKDiLAE-xItJyAtV-16" value="" style="html=1;points=[[0,0,0,0,5],[0,1,0,0,-5],[1,0,0,0,5],[1,1,0,0,-5]];perimeter=orthogonalPerimeter;outlineConnect=0;targetShapes=umlLifeline;portConstraint=eastwest;newEdgeStyle={&quot;curved&quot;:0,&quot;rounded&quot;:0};fillColor=#0050ef;fontColor=#ffffff;strokeColor=#001DBC;" parent="1" vertex="1">
          <mxGeometry x="165" y="130" width="10" height="50" as="geometry" />
        </mxCell>
        <mxCell id="uf-ytKDiLAE-xItJyAtV-17" value="" style="endArrow=none;dashed=1;html=1;rounded=0;fontSize=12;startSize=8;endSize=8;curved=1;" parent="1" edge="1">
          <mxGeometry width="50" height="50" relative="1" as="geometry">
            <mxPoint x="580" y="880" as="sourcePoint" />
            <mxPoint x="580" y="265" as="targetPoint" />
          </mxGeometry>
        </mxCell>
        <mxCell id="uf-ytKDiLAE-xItJyAtV-18" value="" style="html=1;points=[[0,0,0,0,5],[0,1,0,0,-5],[1,0,0,0,5],[1,1,0,0,-5]];perimeter=orthogonalPerimeter;outlineConnect=0;targetShapes=umlLifeline;portConstraint=eastwest;newEdgeStyle={&quot;curved&quot;:0,&quot;rounded&quot;:0};fillColor=#0050ef;fontColor=#ffffff;strokeColor=#001DBC;" parent="1" vertex="1">
          <mxGeometry x="575" y="190" width="10" height="60" as="geometry" />
        </mxCell>
        <mxCell id="uf-ytKDiLAE-xItJyAtV-19" value="" style="endArrow=none;dashed=1;html=1;rounded=0;fontSize=12;startSize=8;endSize=8;curved=1;" parent="1" source="uf-ytKDiLAE-xItJyAtV-37" edge="1">
          <mxGeometry width="50" height="50" relative="1" as="geometry">
            <mxPoint x="804.5" y="830" as="sourcePoint" />
            <mxPoint x="805" y="570" as="targetPoint" />
          </mxGeometry>
        </mxCell>
        <mxCell id="uf-ytKDiLAE-xItJyAtV-20" value="" style="endArrow=none;dashed=1;html=1;rounded=0;fontSize=12;startSize=8;endSize=8;curved=1;entryX=0.5;entryY=1;entryDx=0;entryDy=0;" parent="1" source="uf-ytKDiLAE-xItJyAtV-31" edge="1">
          <mxGeometry width="50" height="50" relative="1" as="geometry">
            <mxPoint x="915" y="590" as="sourcePoint" />
            <mxPoint x="915" y="410" as="targetPoint" />
          </mxGeometry>
        </mxCell>
        <mxCell id="uf-ytKDiLAE-xItJyAtV-21" value="_init_()" style="html=1;verticalAlign=bottom;endArrow=block;curved=0;rounded=0;fontSize=12;startSize=8;endSize=8;" parent="1" target="uf-ytKDiLAE-xItJyAtV-18" edge="1">
          <mxGeometry x="-0.04" width="80" relative="1" as="geometry">
            <mxPoint x="462.5" y="192" as="sourcePoint" />
            <mxPoint x="557.5" y="192" as="targetPoint" />
            <mxPoint as="offset" />
          </mxGeometry>
        </mxCell>
        <mxCell id="uf-ytKDiLAE-xItJyAtV-22" value="" style="endArrow=none;dashed=1;html=1;rounded=0;fontSize=12;startSize=8;endSize=8;curved=1;" parent="1" target="uf-ytKDiLAE-xItJyAtV-23" edge="1">
          <mxGeometry width="50" height="50" relative="1" as="geometry">
            <mxPoint x="455" y="880" as="sourcePoint" />
            <mxPoint x="454.5" y="60" as="targetPoint" />
          </mxGeometry>
        </mxCell>
        <mxCell id="uf-ytKDiLAE-xItJyAtV-23" value="" style="html=1;points=[[0,0,0,0,5],[0,1,0,0,-5],[1,0,0,0,5],[1,1,0,0,-5]];perimeter=orthogonalPerimeter;outlineConnect=0;targetShapes=umlLifeline;portConstraint=eastwest;newEdgeStyle={&quot;curved&quot;:0,&quot;rounded&quot;:0};fillColor=#0050ef;fontColor=#ffffff;strokeColor=#001DBC;" parent="1" vertex="1">
          <mxGeometry x="450" y="180" width="10" height="650" as="geometry" />
        </mxCell>
        <mxCell id="uf-ytKDiLAE-xItJyAtV-24" value="Selects Parking" style="html=1;verticalAlign=bottom;endArrow=block;curved=0;rounded=0;fontSize=12;startSize=8;endSize=8;" parent="1" target="uf-ytKDiLAE-xItJyAtV-18" edge="1">
          <mxGeometry x="-0.7015" y="7" width="80" relative="1" as="geometry">
            <mxPoint x="60" y="227" as="sourcePoint" />
            <mxPoint x="140" y="227" as="targetPoint" />
            <mxPoint as="offset" />
          </mxGeometry>
        </mxCell>
        <mxCell id="uf-ytKDiLAE-xItJyAtV-25" value="return selection" style="html=1;verticalAlign=bottom;endArrow=open;dashed=1;endSize=8;curved=0;rounded=0;fontSize=12;" parent="1" edge="1">
          <mxGeometry relative="1" as="geometry">
            <mxPoint x="585" y="250" as="sourcePoint" />
            <mxPoint x="460" y="250" as="targetPoint" />
          </mxGeometry>
        </mxCell>
        <mxCell id="uf-ytKDiLAE-xItJyAtV-26" value="_init_()" style="html=1;verticalAlign=bottom;endArrow=block;curved=0;rounded=0;fontSize=12;startSize=8;endSize=8;" parent="1" edge="1">
          <mxGeometry x="-0.5862" width="80" relative="1" as="geometry">
            <mxPoint x="460" y="380" as="sourcePoint" />
            <mxPoint x="750" y="380" as="targetPoint" />
            <mxPoint as="offset" />
          </mxGeometry>
        </mxCell>
        <mxCell id="uf-ytKDiLAE-xItJyAtV-27" value="Selects Dates" style="html=1;verticalAlign=bottom;endArrow=block;curved=0;rounded=0;fontSize=12;startSize=8;endSize=8;" parent="1" edge="1" target="uf-ytKDiLAE-xItJyAtV-46">
          <mxGeometry x="-0.76" width="80" relative="1" as="geometry">
            <mxPoint x="60" y="410" as="sourcePoint" />
            <mxPoint x="560" y="410" as="targetPoint" />
            <mxPoint as="offset" />
          </mxGeometry>
        </mxCell>
        <mxCell id="uf-ytKDiLAE-xItJyAtV-28" value="return selection" style="html=1;verticalAlign=bottom;endArrow=open;dashed=1;endSize=8;curved=0;rounded=0;fontSize=12;exitX=0;exitY=1;exitDx=0;exitDy=-5;exitPerimeter=0;" parent="1" edge="1">
          <mxGeometry x="0.0435" relative="1" as="geometry">
            <mxPoint x="750" y="450" as="sourcePoint" />
            <mxPoint x="460" y="450" as="targetPoint" />
            <mxPoint as="offset" />
          </mxGeometry>
        </mxCell>
        <mxCell id="uf-ytKDiLAE-xItJyAtV-29" value="checksDatesAvailability()" style="html=1;verticalAlign=bottom;endArrow=block;curved=0;rounded=0;fontSize=12;startSize=8;endSize=8;" parent="1" source="uf-ytKDiLAE-xItJyAtV-23" target="uf-ytKDiLAE-xItJyAtV-31" edge="1">
          <mxGeometry x="-0.4667" width="80" relative="1" as="geometry">
            <mxPoint x="460" y="440" as="sourcePoint" />
            <mxPoint x="870" y="440" as="targetPoint" />
            <mxPoint as="offset" />
          </mxGeometry>
        </mxCell>
        <mxCell id="uf-ytKDiLAE-xItJyAtV-30" value="" style="endArrow=none;dashed=1;html=1;rounded=0;fontSize=12;startSize=8;endSize=8;curved=1;entryX=0.5;entryY=1;entryDx=0;entryDy=0;" parent="1" target="uf-ytKDiLAE-xItJyAtV-31" edge="1">
          <mxGeometry width="50" height="50" relative="1" as="geometry">
            <mxPoint x="915" y="880" as="sourcePoint" />
            <mxPoint x="915" y="340" as="targetPoint" />
          </mxGeometry>
        </mxCell>
        <mxCell id="uf-ytKDiLAE-xItJyAtV-31" value="" style="html=1;points=[[0,0,0,0,5],[0,1,0,0,-5],[1,0,0,0,5],[1,1,0,0,-5]];perimeter=orthogonalPerimeter;outlineConnect=0;targetShapes=umlLifeline;portConstraint=eastwest;newEdgeStyle={&quot;curved&quot;:0,&quot;rounded&quot;:0};fillColor=#0050ef;fontColor=#ffffff;strokeColor=#001DBC;" parent="1" vertex="1">
          <mxGeometry x="910" y="500" width="10" height="30" as="geometry" />
        </mxCell>
        <mxCell id="uf-ytKDiLAE-xItJyAtV-32" value="return availability" style="html=1;verticalAlign=bottom;endArrow=open;dashed=1;endSize=8;curved=0;rounded=0;fontSize=12;exitX=0;exitY=1;exitDx=0;exitDy=-5;exitPerimeter=0;" parent="1" edge="1">
          <mxGeometry x="0.4667" relative="1" as="geometry">
            <mxPoint x="910" y="530" as="sourcePoint" />
            <mxPoint x="460" y="530" as="targetPoint" />
            <mxPoint as="offset" />
          </mxGeometry>
        </mxCell>
        <mxCell id="uf-ytKDiLAE-xItJyAtV-33" value="alt" style="shape=umlFrame;whiteSpace=wrap;html=1;pointerEvents=0;" parent="1" vertex="1">
          <mxGeometry x="370" y="550" width="905" height="310" as="geometry" />
        </mxCell>
        <mxCell id="uf-ytKDiLAE-xItJyAtV-34" value="[Check ok]" style="text;html=1;align=center;verticalAlign=middle;whiteSpace=wrap;rounded=0;" parent="1" vertex="1">
          <mxGeometry x="480" y="550" width="60" height="30" as="geometry" />
        </mxCell>
        <mxCell id="uf-ytKDiLAE-xItJyAtV-35" value="_init_()" style="html=1;verticalAlign=bottom;endArrow=block;curved=0;rounded=0;fontSize=12;startSize=8;endSize=8;" parent="1" edge="1">
          <mxGeometry width="80" relative="1" as="geometry">
            <mxPoint x="460" y="600" as="sourcePoint" />
            <mxPoint x="800" y="600" as="targetPoint" />
          </mxGeometry>
        </mxCell>
        <mxCell id="uf-ytKDiLAE-xItJyAtV-36" value="" style="endArrow=none;dashed=1;html=1;rounded=0;fontSize=12;startSize=8;endSize=8;curved=1;" parent="1" target="uf-ytKDiLAE-xItJyAtV-37" edge="1">
          <mxGeometry width="50" height="50" relative="1" as="geometry">
            <mxPoint x="805" y="880" as="sourcePoint" />
            <mxPoint x="805" y="520" as="targetPoint" />
          </mxGeometry>
        </mxCell>
        <mxCell id="uf-ytKDiLAE-xItJyAtV-37" value="" style="html=1;points=[[0,0,0,0,5],[0,1,0,0,-5],[1,0,0,0,5],[1,1,0,0,-5]];perimeter=orthogonalPerimeter;outlineConnect=0;targetShapes=umlLifeline;portConstraint=eastwest;newEdgeStyle={&quot;curved&quot;:0,&quot;rounded&quot;:0};fillColor=#0050ef;fontColor=#ffffff;strokeColor=#001DBC;" parent="1" vertex="1">
          <mxGeometry x="800" y="600" width="10" height="60" as="geometry" />
        </mxCell>
        <mxCell id="uf-ytKDiLAE-xItJyAtV-38" value="Selects Pay&amp;nbsp;&lt;div&gt;Reservation&lt;/div&gt;" style="html=1;verticalAlign=bottom;endArrow=block;curved=0;rounded=0;fontSize=12;startSize=8;endSize=8;" parent="1" edge="1" target="uf-ytKDiLAE-xItJyAtV-37">
          <mxGeometry x="-0.7818" width="80" relative="1" as="geometry">
            <mxPoint x="60" y="634.5" as="sourcePoint" />
            <mxPoint x="610" y="634.5" as="targetPoint" />
            <mxPoint as="offset" />
          </mxGeometry>
        </mxCell>
        <mxCell id="uf-ytKDiLAE-xItJyAtV-39" value="HomeScreen()" style="html=1;verticalAlign=bottom;endArrow=block;curved=0;rounded=0;fontSize=12;startSize=8;endSize=8;" parent="1" edge="1" source="tpl-StxJwWzlwoZiyHYm-4">
          <mxGeometry width="80" relative="1" as="geometry">
            <mxPoint x="260" y="130" as="sourcePoint" />
            <mxPoint x="170" y="130" as="targetPoint" />
          </mxGeometry>
        </mxCell>
        <mxCell id="uf-ytKDiLAE-xItJyAtV-40" value="go_to_rent_spot()" style="html=1;verticalAlign=bottom;endArrow=block;curved=0;rounded=0;fontSize=12;startSize=8;endSize=8;" parent="1" edge="1" target="uf-ytKDiLAE-xItJyAtV-23">
          <mxGeometry x="-0.5273" width="80" relative="1" as="geometry">
            <mxPoint x="175" y="180" as="sourcePoint" />
            <mxPoint x="260" y="180" as="targetPoint" />
            <mxPoint as="offset" />
          </mxGeometry>
        </mxCell>
        <mxCell id="uf-ytKDiLAE-xItJyAtV-41" value="SpotScreen" style="rounded=0;whiteSpace=wrap;html=1;" parent="1" vertex="1">
          <mxGeometry x="640" y="40" width="70" height="20" as="geometry" />
        </mxCell>
        <mxCell id="uf-ytKDiLAE-xItJyAtV-42" value="" style="endArrow=none;dashed=1;html=1;rounded=0;fontSize=12;startSize=8;endSize=8;curved=1;" parent="1" source="uf-ytKDiLAE-xItJyAtV-44" edge="1">
          <mxGeometry width="50" height="50" relative="1" as="geometry">
            <mxPoint x="674.5" y="830" as="sourcePoint" />
            <mxPoint x="674.5" y="60" as="targetPoint" />
          </mxGeometry>
        </mxCell>
        <mxCell id="uf-ytKDiLAE-xItJyAtV-43" value="" style="endArrow=none;dashed=1;html=1;rounded=0;fontSize=12;startSize=8;endSize=8;curved=1;" parent="1" target="uf-ytKDiLAE-xItJyAtV-44" edge="1">
          <mxGeometry width="50" height="50" relative="1" as="geometry">
            <mxPoint x="675" y="880" as="sourcePoint" />
            <mxPoint x="674.5" y="60" as="targetPoint" />
          </mxGeometry>
        </mxCell>
        <mxCell id="uf-ytKDiLAE-xItJyAtV-44" value="" style="html=1;points=[[0,0,0,0,5],[0,1,0,0,-5],[1,0,0,0,5],[1,1,0,0,-5]];perimeter=orthogonalPerimeter;outlineConnect=0;targetShapes=umlLifeline;portConstraint=eastwest;newEdgeStyle={&quot;curved&quot;:0,&quot;rounded&quot;:0};fillColor=#0050ef;fontColor=#ffffff;strokeColor=#001DBC;" parent="1" vertex="1">
          <mxGeometry x="670" y="300" width="10" height="40" as="geometry" />
        </mxCell>
        <mxCell id="uf-ytKDiLAE-xItJyAtV-45" value="" style="endArrow=none;dashed=1;html=1;rounded=0;fontSize=12;startSize=8;endSize=8;curved=1;" parent="1" target="uf-ytKDiLAE-xItJyAtV-46" edge="1">
          <mxGeometry width="50" height="50" relative="1" as="geometry">
            <mxPoint x="755" y="880" as="sourcePoint" />
            <mxPoint x="754.5" y="60" as="targetPoint" />
          </mxGeometry>
        </mxCell>
        <mxCell id="uf-ytKDiLAE-xItJyAtV-46" value="" style="html=1;points=[[0,0,0,0,5],[0,1,0,0,-5],[1,0,0,0,5],[1,1,0,0,-5]];perimeter=orthogonalPerimeter;outlineConnect=0;targetShapes=umlLifeline;portConstraint=eastwest;newEdgeStyle={&quot;curved&quot;:0,&quot;rounded&quot;:0};fillColor=#0050ef;fontColor=#ffffff;strokeColor=#001DBC;" parent="1" vertex="1">
          <mxGeometry x="750" y="380" width="10" height="70" as="geometry" />
        </mxCell>
        <mxCell id="uf-ytKDiLAE-xItJyAtV-47" value="_init_()" style="html=1;verticalAlign=bottom;endArrow=block;curved=0;rounded=0;fontSize=12;startSize=8;endSize=8;" parent="1" edge="1">
          <mxGeometry x="-0.4286" width="80" relative="1" as="geometry">
            <mxPoint x="460" y="300" as="sourcePoint" />
            <mxPoint x="670" y="300" as="targetPoint" />
            <mxPoint as="offset" />
          </mxGeometry>
        </mxCell>
        <mxCell id="uf-ytKDiLAE-xItJyAtV-48" value="Selects Spot" style="html=1;verticalAlign=bottom;endArrow=block;curved=0;rounded=0;fontSize=12;startSize=8;endSize=8;" parent="1" target="uf-ytKDiLAE-xItJyAtV-44" edge="1">
          <mxGeometry x="-0.8095" y="5" width="80" relative="1" as="geometry">
            <mxPoint x="60" y="320" as="sourcePoint" />
            <mxPoint x="140" y="284.5" as="targetPoint" />
            <mxPoint y="1" as="offset" />
          </mxGeometry>
        </mxCell>
        <mxCell id="uf-ytKDiLAE-xItJyAtV-49" value="return selection" style="html=1;verticalAlign=bottom;endArrow=open;dashed=1;endSize=8;curved=0;rounded=0;fontSize=12;" parent="1" edge="1">
          <mxGeometry relative="1" as="geometry">
            <mxPoint x="670" y="340" as="sourcePoint" />
            <mxPoint x="460" y="340" as="targetPoint" />
          </mxGeometry>
        </mxCell>
        <mxCell id="uf-ytKDiLAE-xItJyAtV-50" value="checkspotAvailability()" style="html=1;verticalAlign=bottom;endArrow=block;curved=0;rounded=0;fontSize=12;startSize=8;endSize=8;" parent="1" edge="1">
          <mxGeometry x="-0.1556" width="80" relative="1" as="geometry">
            <mxPoint x="460" y="260" as="sourcePoint" />
            <mxPoint x="910" y="260" as="targetPoint" />
            <mxPoint as="offset" />
          </mxGeometry>
        </mxCell>
        <mxCell id="uf-ytKDiLAE-xItJyAtV-51" value="return availability" style="html=1;verticalAlign=bottom;endArrow=open;dashed=1;endSize=8;curved=0;rounded=0;fontSize=12;" parent="1" edge="1">
          <mxGeometry x="0.1556" y="1" relative="1" as="geometry">
            <mxPoint x="910" y="280" as="sourcePoint" />
            <mxPoint x="460" y="280" as="targetPoint" />
            <mxPoint as="offset" />
          </mxGeometry>
        </mxCell>
        <mxCell id="uf-ytKDiLAE-xItJyAtV-52" value="" style="html=1;points=[[0,0,0,0,5],[0,1,0,0,-5],[1,0,0,0,5],[1,1,0,0,-5]];perimeter=orthogonalPerimeter;outlineConnect=0;targetShapes=umlLifeline;portConstraint=eastwest;newEdgeStyle={&quot;curved&quot;:0,&quot;rounded&quot;:0};fillColor=#0050ef;fontColor=#ffffff;strokeColor=#001DBC;" parent="1" vertex="1">
          <mxGeometry x="910" y="260" width="10" height="20" as="geometry" />
        </mxCell>
        <mxCell id="uf-ytKDiLAE-xItJyAtV-53" value="Bank" style="rounded=0;whiteSpace=wrap;html=1;" parent="1" vertex="1">
          <mxGeometry x="945" y="550" width="80" height="20" as="geometry" />
        </mxCell>
        <mxCell id="uf-ytKDiLAE-xItJyAtV-54" value="" style="endArrow=none;dashed=1;html=1;rounded=0;fontSize=12;startSize=8;endSize=8;curved=1;" parent="1" source="uf-ytKDiLAE-xItJyAtV-60" edge="1">
          <mxGeometry width="50" height="50" relative="1" as="geometry">
            <mxPoint x="984.5" y="830" as="sourcePoint" />
            <mxPoint x="984.5" y="570" as="targetPoint" />
          </mxGeometry>
        </mxCell>
        <mxCell id="uf-ytKDiLAE-xItJyAtV-55" value="Connection with bank" style="html=1;verticalAlign=bottom;endArrow=block;curved=0;rounded=0;fontSize=12;startSize=8;endSize=8;" parent="1" edge="1">
          <mxGeometry x="0.2" width="80" relative="1" as="geometry">
            <mxPoint x="450" y="690" as="sourcePoint" />
            <mxPoint x="980" y="690" as="targetPoint" />
            <mxPoint as="offset" />
          </mxGeometry>
        </mxCell>
        <mxCell id="uf-ytKDiLAE-xItJyAtV-56" value="return selection" style="html=1;verticalAlign=bottom;endArrow=open;dashed=1;endSize=8;curved=0;rounded=0;fontSize=12;" parent="1" edge="1">
          <mxGeometry relative="1" as="geometry">
            <mxPoint x="795" y="660" as="sourcePoint" />
            <mxPoint x="460" y="660" as="targetPoint" />
          </mxGeometry>
        </mxCell>
        <mxCell id="uf-ytKDiLAE-xItJyAtV-57" value="show &quot;Successful Rental&quot;" style="html=1;verticalAlign=bottom;endArrow=block;curved=0;rounded=0;fontSize=12;startSize=8;endSize=8;" parent="1" edge="1">
          <mxGeometry x="-0.4167" width="80" relative="1" as="geometry">
            <mxPoint x="460" y="774.47" as="sourcePoint" />
            <mxPoint x="800" y="774.47" as="targetPoint" />
            <mxPoint as="offset" />
          </mxGeometry>
        </mxCell>
        <mxCell id="uf-ytKDiLAE-xItJyAtV-58" value="" style="html=1;points=[[0,0,0,0,5],[0,1,0,0,-5],[1,0,0,0,5],[1,1,0,0,-5]];perimeter=orthogonalPerimeter;outlineConnect=0;targetShapes=umlLifeline;portConstraint=eastwest;newEdgeStyle={&quot;curved&quot;:0,&quot;rounded&quot;:0};fillColor=#0050ef;fontColor=#ffffff;strokeColor=#001DBC;" parent="1" vertex="1">
          <mxGeometry x="800" y="770" width="10" height="20" as="geometry" />
        </mxCell>
        <mxCell id="uf-ytKDiLAE-xItJyAtV-59" value="" style="endArrow=none;dashed=1;html=1;rounded=0;fontSize=12;startSize=8;endSize=8;curved=1;" parent="1" target="uf-ytKDiLAE-xItJyAtV-60" edge="1">
          <mxGeometry width="50" height="50" relative="1" as="geometry">
            <mxPoint x="985" y="880" as="sourcePoint" />
            <mxPoint x="984.5" y="570" as="targetPoint" />
          </mxGeometry>
        </mxCell>
        <mxCell id="uf-ytKDiLAE-xItJyAtV-60" value="" style="html=1;points=[[0,0,0,0,5],[0,1,0,0,-5],[1,0,0,0,5],[1,1,0,0,-5]];perimeter=orthogonalPerimeter;outlineConnect=0;targetShapes=umlLifeline;portConstraint=eastwest;newEdgeStyle={&quot;curved&quot;:0,&quot;rounded&quot;:0};fillColor=#0050ef;fontColor=#ffffff;strokeColor=#001DBC;" parent="1" vertex="1">
          <mxGeometry x="980" y="690" width="10" height="10" as="geometry" />
        </mxCell>
        <mxCell id="uf-ytKDiLAE-xItJyAtV-61" value="" style="endArrow=none;dashed=1;html=1;rounded=0;fontSize=12;startSize=8;endSize=8;curved=1;" parent="1" edge="1">
          <mxGeometry width="50" height="50" relative="1" as="geometry">
            <mxPoint x="100" y="790" as="sourcePoint" />
            <mxPoint x="1110" y="790" as="targetPoint" />
          </mxGeometry>
        </mxCell>
        <mxCell id="uf-ytKDiLAE-xItJyAtV-62" value="[else]" style="text;html=1;align=center;verticalAlign=middle;whiteSpace=wrap;rounded=0;" parent="1" vertex="1">
          <mxGeometry x="450" y="790" width="60" height="30" as="geometry" />
        </mxCell>
        <mxCell id="uf-ytKDiLAE-xItJyAtV-63" value="showDates()" style="html=1;verticalAlign=bottom;endArrow=block;curved=0;rounded=0;fontSize=12;startSize=8;endSize=8;" parent="1" edge="1">
          <mxGeometry width="80" relative="1" as="geometry">
            <mxPoint x="460" y="820" as="sourcePoint" />
            <mxPoint x="750" y="820" as="targetPoint" />
          </mxGeometry>
        </mxCell>
        <mxCell id="uf-ytKDiLAE-xItJyAtV-64" value="" style="html=1;points=[[0,0,0,0,5],[0,1,0,0,-5],[1,0,0,0,5],[1,1,0,0,-5]];perimeter=orthogonalPerimeter;outlineConnect=0;targetShapes=umlLifeline;portConstraint=eastwest;newEdgeStyle={&quot;curved&quot;:0,&quot;rounded&quot;:0};fillColor=#0050ef;fontColor=#ffffff;strokeColor=#001DBC;" parent="1" vertex="1">
          <mxGeometry x="750" y="810" width="10" height="40" as="geometry" />
        </mxCell>
        <mxCell id="uf-ytKDiLAE-xItJyAtV-65" value="return &quot;No availability&lt;span style=&quot;background-color: light-dark(#ffffff, var(--ge-dark-color, #121212)); color: light-dark(rgb(0, 0, 0), rgb(255, 255, 255));&quot;&gt;&quot;&lt;/span&gt;" style="html=1;align=left;spacingLeft=2;endArrow=block;rounded=0;edgeStyle=orthogonalEdgeStyle;curved=0;rounded=0;fontSize=12;startSize=8;endSize=8;" parent="1" target="uf-ytKDiLAE-xItJyAtV-64" edge="1">
          <mxGeometry relative="1" as="geometry">
            <mxPoint x="760" y="820" as="sourcePoint" />
            <Array as="points">
              <mxPoint x="790" y="820" />
              <mxPoint x="790" y="850" />
            </Array>
            <mxPoint x="765" y="850" as="targetPoint" />
          </mxGeometry>
        </mxCell>
        <mxCell id="uf-ytKDiLAE-xItJyAtV-66" value="" style="endArrow=none;dashed=1;html=1;rounded=0;fontSize=12;startSize=8;endSize=8;curved=1;exitX=0.857;exitY=1.006;exitDx=0;exitDy=0;exitPerimeter=0;" parent="1" edge="1">
          <mxGeometry width="50" height="50" relative="1" as="geometry">
            <mxPoint x="1120.085" y="861.8600000000001" as="sourcePoint" />
            <mxPoint x="1119.5" y="570" as="targetPoint" />
          </mxGeometry>
        </mxCell>
        <mxCell id="uf-ytKDiLAE-xItJyAtV-67" value="ReserveInfoclass" style="rounded=0;whiteSpace=wrap;html=1;" parent="1" vertex="1">
          <mxGeometry x="1070" y="550" width="100" height="20" as="geometry" />
        </mxCell>
        <mxCell id="uf-ytKDiLAE-xItJyAtV-68" value="qrcode.make()" style="html=1;verticalAlign=bottom;endArrow=block;curved=0;rounded=0;fontSize=12;startSize=8;endSize=8;" parent="1" target="uf-ytKDiLAE-xItJyAtV-69" edge="1">
          <mxGeometry x="0.7273" width="80" relative="1" as="geometry">
            <mxPoint x="460" y="750" as="sourcePoint" />
            <mxPoint x="1110" y="750" as="targetPoint" />
            <mxPoint as="offset" />
          </mxGeometry>
        </mxCell>
        <mxCell id="uf-ytKDiLAE-xItJyAtV-69" value="" style="html=1;points=[[0,0,0,0,5],[0,1,0,0,-5],[1,0,0,0,5],[1,1,0,0,-5]];perimeter=orthogonalPerimeter;outlineConnect=0;targetShapes=umlLifeline;portConstraint=eastwest;newEdgeStyle={&quot;curved&quot;:0,&quot;rounded&quot;:0};fillColor=#0050ef;fontColor=#ffffff;strokeColor=#001DBC;" parent="1" vertex="1">
          <mxGeometry x="1115" y="750" width="10" height="20" as="geometry" />
        </mxCell>
        <mxCell id="uf-ytKDiLAE-xItJyAtV-70" value="do_rent()" style="html=1;verticalAlign=bottom;endArrow=block;curved=0;rounded=0;fontSize=12;startSize=8;endSize=8;entryX=0;entryY=0;entryDx=0;entryDy=5;entryPerimeter=0;" parent="1" source="uf-ytKDiLAE-xItJyAtV-23" target="uf-ytKDiLAE-xItJyAtV-71" edge="1">
          <mxGeometry x="-0.2444" width="80" relative="1" as="geometry">
            <mxPoint x="715" y="730" as="sourcePoint" />
            <mxPoint x="520" y="710" as="targetPoint" />
            <mxPoint x="-1" as="offset" />
          </mxGeometry>
        </mxCell>
        <mxCell id="uf-ytKDiLAE-xItJyAtV-71" value="" style="html=1;points=[[0,0,0,0,5],[0,1,0,0,-5],[1,0,0,0,5],[1,1,0,0,-5]];perimeter=orthogonalPerimeter;outlineConnect=0;targetShapes=umlLifeline;portConstraint=eastwest;newEdgeStyle={&quot;curved&quot;:0,&quot;rounded&quot;:0};fillColor=#0050ef;fontColor=#ffffff;strokeColor=#001DBC;" parent="1" vertex="1">
          <mxGeometry x="910" y="710" width="10" height="20" as="geometry" />
        </mxCell>
        <mxCell id="tpl-StxJwWzlwoZiyHYm-1" value="SmartParkAppClass" style="html=1;whiteSpace=wrap;" vertex="1" parent="1">
          <mxGeometry x="250" y="40" width="130" height="20" as="geometry" />
        </mxCell>
        <mxCell id="tpl-StxJwWzlwoZiyHYm-2" value="" style="endArrow=none;dashed=1;html=1;rounded=0;" edge="1" parent="1" source="tpl-StxJwWzlwoZiyHYm-4">
          <mxGeometry width="50" height="50" relative="1" as="geometry">
            <mxPoint x="320" y="880" as="sourcePoint" />
            <mxPoint x="320" y="60" as="targetPoint" />
          </mxGeometry>
        </mxCell>
        <mxCell id="tpl-StxJwWzlwoZiyHYm-3" value="" style="endArrow=none;dashed=1;html=1;rounded=0;" edge="1" parent="1" target="tpl-StxJwWzlwoZiyHYm-4">
          <mxGeometry width="50" height="50" relative="1" as="geometry">
            <mxPoint x="320" y="880" as="sourcePoint" />
            <mxPoint x="320" y="60" as="targetPoint" />
          </mxGeometry>
        </mxCell>
        <mxCell id="tpl-StxJwWzlwoZiyHYm-4" value="" style="html=1;points=[[0,0,0,0,5],[0,1,0,0,-5],[1,0,0,0,5],[1,1,0,0,-5]];perimeter=orthogonalPerimeter;outlineConnect=0;targetShapes=umlLifeline;portConstraint=eastwest;newEdgeStyle={&quot;curved&quot;:0,&quot;rounded&quot;:0};fillColor=#0050ef;fontColor=#ffffff;strokeColor=#001DBC;" vertex="1" parent="1">
          <mxGeometry x="315" y="70" width="10" height="60" as="geometry" />
        </mxCell>
        <mxCell id="tpl-StxJwWzlwoZiyHYm-8" value="return" style="html=1;verticalAlign=bottom;endArrow=open;dashed=1;endSize=8;curved=0;rounded=0;" edge="1" parent="1" target="uf-ytKDiLAE-xItJyAtV-23">
          <mxGeometry x="-0.7778" relative="1" as="geometry">
            <mxPoint x="910" y="730" as="sourcePoint" />
            <mxPoint x="830" y="730" as="targetPoint" />
            <mxPoint x="-1" as="offset" />
          </mxGeometry>
        </mxCell>
      </root>
    </mxGraphModel>
  </diagram>
</mxfile>
